<?xml version="1.0" encoding="utf-8"?>
<!-- Generator: Adobe Illustrator 16.0.4, SVG Export Plug-In . SVG Version: 6.00 Build 0)  -->
<!DOCTYPE svg PUBLIC "-//W3C//DTD SVG 1.1//EN" "http://www.w3.org/Graphics/SVG/1.1/DTD/svg11.dtd">
<svg version="1.1" id="Layer_1" xmlns="http://www.w3.org/2000/svg" xmlns:xlink="http://www.w3.org/1999/xlink" x="0px" y="0px"
	 width="400px" height="300px" viewBox="0 0 400 300" enable-background="new 0 0 400 300" xml:space="preserve">
<g>
	<path fill="none" stroke="#FFFFFF" stroke-miterlimit="10" d="M324.344,223.176c0.542,0.394,1.205,2.157,1.839,4.184
		c1.041,3.321,5.253,4.304,7.654,1.786c2.715-2.846,5.57-6.13,6.293-8.032c0.195-0.512,0.878-0.602,1.198-0.157
		c0.688,0.954,7.325,3.289,11.627,4.727c2.975,0.992,5.563-2.31,3.865-4.946c-2.168-3.364-6.196-6.86-7.29-7.724
		c-0.333-0.262,5.231-1.513,10.313-2.585c2.645-0.558,3.088-4.143,0.661-5.332c-3.838-1.882-9.749-7.413-8.99-7.468
		c5.084-0.369,13.396-8.574,12.369-11.606c-1.096-3.236-18.019-4.037-17.99-4.473c0,0,2.042-2.2,9.5-4.878
		c7.413-2.659,6.363-10.848,3.382-16.501c-1.95-3.698-23.036-4.211-22.677-4.737c1.601-2.361,4.891-4.827,7.845-6.392
		c2.893-1.534,6.975-4.577,4.675-6.907c-0.029-0.029-0.058-0.058-0.086-0.086c-2.741-2.742-4.111-3.564-11.974-3.976
		c-8.755-0.458-16.528,2.329-16.532,2.331c0.002-0.004,2.743-4.935,8.771-7.127c1.034-0.376,2.069-0.672,3.072-0.903
		c3.115-0.718,4.031-4.706,1.534-6.704l-0.77-0.615c-3.736-2.989-15.231,0.181-22.174,2.502c-0.764,0.256-1.266-0.784-0.594-1.228
		c3.088-2.043,6.685-4.46,7.732-5.316c0.151-0.125,0.234-0.306,0.234-0.503c0-0.509,0-1.54-0.001-1.973
		c0-0.146-0.049-0.281-0.135-0.398c-0.613-0.826-3.548-4.023-13.021-5.418c-3.375-0.498-8.526,4.362-10.85,6.775
		c-0.433,0.449-1.19,0.142-1.186-0.481c0.026-3.278-0.025-10.133-0.847-12.598c-1.097-3.289-8.497-1.645-10.142,7.127
		c-0.664,3.535-1.205,5.825-1.616,7.297c-0.196,0.704-1.211,0.655-1.337-0.064c-0.836-4.731-3.104-14.518-8.011-18.196
		c-6.578-4.934-13.544-2.832-12.06,0c1.632,3.115,3.836,18.213,3.837,18.226c0,0.001,0,0,0,0c-0.005-0.007-4.387-5.622-7.126-10.003
		c-2.741-4.386-6.03-6.031-15.897-6.578c-9.867-0.548-10.689,5.481-6.304,8.77c4.385,3.289,6.304,14.796,6.304,14.8
		c-0.003-0.001-9.046-5.482-18.619-6.989c-9.572-1.506-12.626,7.539-6.048,10.827c6.574,3.287,9.863,7.669,9.867,7.674
		c-0.007-0.001-6.584-2.193-17.173-3.289c-10.594-1.096-14.074,7.127-9.552,7.127c4.521,0,13.56,7.667,13.568,7.674
		c-0.007,0-3.847-0.545-13.568,2.356c-9.729,2.902-12.196,10.253-5.482,9.705c6.712-0.55,13.566,2.19,13.568,2.191l0,0
		c-0.003,0.002-12.334,6.159-11.26,8.498c1.074,2.338,14.611,4.109,14.617,4.111l0,0c-0.005,0.001-11.854,7.4-13.91,12.709
		c-2.056,5.312,13.152,8.395,13.157,8.395l0,0c-0.005,0.004-17.953,13.431-15.761,16.72c2.192,3.288,14.794,0.002,14.801,0
		c0.001,0,0,0,0,0c-0.006,0.007-10.415,14.801-9.73,18.09c0.685,3.288,18.77-3.287,18.775-3.289
		c-0.004,0.002-11.785,8.223-5.756,10.963c4.873,2.216,29.895-6.321,29.895-6.321"/>
	<path fill="none" stroke="#FFFFFF" stroke-miterlimit="10" d="M324.344,223.176c0.542,0.394,1.205,2.157,1.839,4.184
		c1.041,3.321,5.253,4.304,7.654,1.786c2.715-2.846,5.57-6.13,6.293-8.032c0.195-0.512,0.878-0.602,1.198-0.157
		c0.688,0.954,7.325,3.289,11.627,4.727c2.975,0.992,5.563-2.31,3.865-4.946c-2.168-3.364-6.196-6.86-7.29-7.724
		c-0.333-0.262,5.231-1.513,10.313-2.585c2.645-0.558,3.088-4.143,0.661-5.332c-3.838-1.882-9.749-7.413-8.99-7.468
		c5.084-0.369,13.396-8.574,12.369-11.606c-1.096-3.236-18.019-4.037-17.99-4.473c0,0,2.042-2.2,9.5-4.878
		c7.413-2.659,6.363-10.848,3.382-16.501c-1.95-3.698-23.036-4.211-22.677-4.737c1.601-2.361,4.891-4.827,7.845-6.392
		c2.893-1.534,6.975-4.577,4.675-6.907c-0.029-0.029-0.058-0.058-0.086-0.086c-2.741-2.742-4.111-3.564-11.974-3.976
		c-8.755-0.458-16.528,2.329-16.532,2.331c0.002-0.004,2.743-4.935,8.771-7.127c1.034-0.376,2.069-0.672,3.072-0.903
		c3.115-0.718,4.031-4.706,1.534-6.704l-0.77-0.615c-3.736-2.989-15.231,0.181-22.174,2.502c-0.764,0.256-1.266-0.784-0.594-1.228
		c3.088-2.043,6.685-4.46,7.732-5.316c0.151-0.125,0.234-0.306,0.234-0.503c0-0.509,0-1.54-0.001-1.973
		c0-0.146-0.049-0.281-0.135-0.398c-0.613-0.826-3.548-4.023-13.021-5.418c-3.375-0.498-8.526,4.362-10.85,6.775
		c-0.433,0.449-1.19,0.142-1.186-0.481c0.026-3.278-0.025-10.133-0.847-12.598c-1.097-3.289-8.497-1.645-10.142,7.127
		c-0.664,3.535-1.205,5.825-1.616,7.297c-0.196,0.704-1.211,0.655-1.337-0.064c-0.836-4.731-3.104-14.518-8.011-18.196
		c-6.578-4.934-13.544-2.832-12.06,0c1.632,3.115,3.836,18.213,3.837,18.226c0,0.001,0,0,0,0c-0.005-0.007-4.387-5.622-7.126-10.003
		c-2.741-4.386-6.03-6.031-15.897-6.578c-9.867-0.548-10.689,5.481-6.304,8.77c4.385,3.289,6.304,14.796,6.304,14.8
		c-0.003-0.001-9.046-5.482-18.619-6.989c-9.572-1.506-12.626,7.539-6.048,10.827c6.574,3.287,9.863,7.669,9.867,7.674
		c-0.007-0.001-6.584-2.193-17.173-3.289c-10.594-1.096-14.074,7.127-9.552,7.127c4.521,0,13.56,7.667,13.568,7.674
		c-0.007,0-3.847-0.545-13.568,2.356c-9.729,2.902-12.196,10.253-5.482,9.705c6.712-0.55,13.566,2.19,13.568,2.191l0,0
		c-0.003,0.002-12.334,6.159-11.26,8.498c1.074,2.338,14.611,4.109,14.617,4.111l0,0c-0.005,0.001-11.854,7.4-13.91,12.709
		c-2.056,5.312,13.152,8.395,13.157,8.395l0,0c-0.005,0.004-17.953,13.431-15.761,16.72c2.192,3.288,14.794,0.002,14.801,0
		c0.001,0,0,0,0,0c-0.006,0.007-10.415,14.801-9.73,18.09c0.685,3.288,18.77-3.287,18.775-3.289
		c-0.004,0.002-11.785,8.223-5.756,10.963c4.873,2.216,29.895-6.321,29.895-6.321"/>
	<path fill="none" stroke="#FFFFFF" stroke-miterlimit="10" d="M117.262,151.164l3.202,1.033h11.133
		c7.482,0,15.338,7.253,21.323,6.771c5.986-0.48,14.963-8.177,14.963-8.177l7.304-7.245c0.854-0.847-0.055-2.257-1.176-1.822
		c-6.666,2.585-17.86,6.05-22.694,2.451c-7.108-5.291-14.109-16.955-22.34-16.955c-5.783,0-11.08,3.955-14.121,9.669
		c-3.066-5.73-8.389-9.669-14.121-9.669c-8.23,0-15.232,12.485-22.34,17.777c-4.754,3.54-15.663-0.124-22.363-2.937
		c-1.114-0.468-2.057,0.938-1.199,1.79l6.996,6.94c0,0,8.978,7.696,14.964,8.177c5.985,0.481,13.841-6.771,21.323-6.771h11.133
		l5.855-1.729L117.262,151.164z"/>
	<path fill="none" stroke="#FFFFFF" stroke-miterlimit="10" d="M117.262,151.164l3.202,1.033h11.133
		c7.482,0,15.338,7.253,21.323,6.771c5.986-0.48,14.963-8.177,14.963-8.177l7.304-7.245c0.854-0.847-0.055-2.257-1.176-1.822
		c-6.666,2.585-17.86,6.05-22.694,2.451c-7.108-5.291-14.109-16.955-22.34-16.955c-5.783,0-11.08,3.955-14.121,9.669
		c-3.066-5.73-8.389-9.669-14.121-9.669c-8.23,0-15.232,12.485-22.34,17.777c-4.754,3.54-15.663-0.124-22.363-2.937
		c-1.114-0.468-2.057,0.938-1.199,1.79l6.996,6.94c0,0,8.978,7.696,14.964,8.177c5.985,0.481,13.841-6.771,21.323-6.771h11.133
		l5.855-1.729L117.262,151.164z"/>
	<path fill="none" stroke="#FFFFFF" stroke-miterlimit="10" d="M225.092,197.172c0,29.377,23.813,53.19,53.189,53.19
		c29.377,0,53.19-23.813,53.19-53.19c0-29.375-23.813-53.19-53.19-53.19C248.905,143.982,225.092,167.797,225.092,197.172"/>
	<circle fill="none" stroke="#FFFFFF" stroke-miterlimit="10" cx="278.282" cy="197.172" r="53.19"/>
	<path fill="none" stroke="#FFFFFF" stroke-miterlimit="10" d="M61.667,197.172c0,29.377,23.813,53.19,53.19,53.19
		c29.375,0,53.19-23.813,53.19-53.19c0-29.375-23.814-53.19-53.19-53.19C85.48,143.982,61.667,167.797,61.667,197.172"/>
	<circle fill="none" stroke="#FFFFFF" stroke-miterlimit="10" cx="114.857" cy="197.172" r="53.19"/>
	<path fill="none" stroke="#FFFFFF" stroke-miterlimit="10" d="M302.105,228.453c0,0,1.85-6.717-3.152-9.594
		c-5.002-2.878-12.54-4.591-12.54-4.591s-2.603,2.329-6.235,2.329c-3.632,0-6.347-2.329-6.347-2.329s-7.563-1.027-12.771,2.74
		c-5.207,3.77-5.071,10.005-5.071,10.005s3.084-1.233,6.921-1.233c3.838,0,10.955,1.851,16.305,1.851
		c5.349,0,13.708-1.439,13.708-1.439s2.604-0.52,4.865,0.493C300.05,227.698,302.105,228.453,302.105,228.453z"/>
	<circle fill="none" stroke="#FFFFFF" stroke-miterlimit="10" cx="96.141" cy="187.348" r="14.599"/>
	<circle fill="none" stroke="#FFFFFF" stroke-miterlimit="10" cx="134.372" cy="187.348" r="14.599"/>
	<path fill="none" stroke="#FFFFFF" stroke-miterlimit="10" d="M115.283,167.812l-2.095,0.162l-2.074,0.28
		c-1.368,0.263-2.727,0.555-4.018,1.033c-1.296,0.448-2.539,1.037-3.637,1.799c-0.276,0.188-0.532,0.399-0.797,0.596
		c-0.239,0.225-0.503,0.426-0.718,0.666c-0.231,0.229-0.435,0.475-0.63,0.72c-0.172,0.238-0.38,0.543-0.451,0.72l-1.482-0.715
		c0.487-0.8,0.999-1.28,1.589-1.782c0.281-0.256,0.599-0.453,0.895-0.68c0.316-0.192,0.625-0.398,0.947-0.573
		c1.287-0.717,2.659-1.203,4.049-1.537c1.385-0.364,2.801-0.525,4.206-0.655l2.111-0.077L115.283,167.812z"/>
	<path fill="none" stroke="#FFFFFF" stroke-miterlimit="10" d="M129.705,173.787c-0.071-0.177-0.279-0.481-0.451-0.72
		c-0.195-0.245-0.399-0.491-0.631-0.72c-0.215-0.24-0.479-0.439-0.718-0.666c-0.265-0.196-0.521-0.408-0.797-0.596
		c-1.099-0.762-2.341-1.351-3.638-1.799c-1.291-0.479-2.649-0.771-4.017-1.034l-2.075-0.279l-2.095-0.164l2.106-0.042l2.112,0.077
		c1.405,0.13,2.82,0.292,4.206,0.655c1.389,0.334,2.762,0.82,4.049,1.535c0.321,0.177,0.629,0.383,0.947,0.575
		c0.296,0.227,0.613,0.424,0.895,0.68c0.59,0.502,1.102,0.984,1.589,1.782L129.705,173.787z"/>
	<path fill="none" stroke="#FFFFFF" stroke-miterlimit="10" d="M119.881,168.101c-1.36-0.146-2.887-0.231-4.598-0.231
		c-1.709,0-3.235,0.085-4.595,0.231"/>
	<path fill="none" stroke="#FFFFFF" stroke-miterlimit="10" d="M126.163,175.741l-2.765-1.598l0.026,0.013
		c-0.773-0.359-1.64-0.521-2.46-0.313c-0.826,0.187-1.549,0.732-2.114,1.399c-0.551,0.684-1.008,1.476-1.248,2.33
		c-0.245,0.856-0.293,1.771-0.134,2.656l1.977,10.776l-2.158-10.739c-0.205-0.904-0.201-1.859,0.016-2.772
		c0.215-0.917,0.65-1.763,1.208-2.522c0.572-0.744,1.349-1.403,2.309-1.669c0.954-0.289,1.99-0.143,2.882,0.229l0.006,0.001
		l0.021,0.012l2.83,1.478L126.163,175.741z"/>
	<path fill="none" stroke="#FFFFFF" stroke-miterlimit="10" d="M117.413,180.415c0.494,1.898,0.893,3.817,1.301,5.733
		c0.379,1.922,0.767,3.842,1.06,5.781c-0.494-1.898-0.894-3.815-1.301-5.731C118.093,184.274,117.706,182.354,117.413,180.415"/>
	<path fill="none" stroke="#FFFFFF" stroke-miterlimit="10" d="M103.903,175.021l2.832-1.478l0.02-0.01l0.007-0.003
		c0.892-0.369,1.928-0.518,2.881-0.229c0.959,0.266,1.737,0.925,2.309,1.669c0.559,0.76,0.994,1.607,1.209,2.522
		c0.215,0.913,0.22,1.868,0.016,2.771l-2.159,10.741l1.978-10.776c0.158-0.887,0.109-1.8-0.135-2.656
		c-0.24-0.854-0.696-1.646-1.248-2.33c-0.565-0.668-1.288-1.214-2.113-1.399c-0.82-0.208-1.688-0.046-2.461,0.313l0.026-0.013
		l-2.765,1.597L103.903,175.021z"/>
	<path fill="none" stroke="#FFFFFF" stroke-miterlimit="10" d="M113.051,180.415c-0.294,1.939-0.681,3.859-1.06,5.783
		c-0.407,1.916-0.808,3.833-1.301,5.731c0.292-1.939,0.68-3.859,1.059-5.781C112.157,184.232,112.557,182.313,113.051,180.415"/>
	<line fill="none" stroke="#FFFFFF" stroke-miterlimit="10" x1="85.697" y1="197.544" x2="82.946" y2="200.295"/>
	<g>
		<path fill="#FFFFFF" d="M35.989,81.642c0.771-1.787,1.385-3.703,1.843-5.75c0.457-2.045,0.923-4.15,1.399-6.314
			s1.03-4.347,1.667-6.548c0.637-2.2,1.485-4.369,2.544-6.507c1.058-2.137,2.416-4.205,4.073-6.202
			c1.656-1.997,3.752-3.85,6.291-5.559l-0.11-0.086c-2.55,1.347-4.814,2.988-6.792,4.926c-1.979,1.938-3.709,3.944-5.19,6.019
			c-1.481,2.074-2.74,4.071-3.776,5.99c-1.036,1.919-1.903,3.537-2.601,4.849c-1.313,2.485-2.562,4.754-3.748,6.808
			c-1.186,2.055-2.42,3.841-3.705,5.36c-1.286,1.521-2.683,2.747-4.19,3.681c-1.507,0.935-3.273,1.528-5.296,1.781
			c-0.915,0.114-1.794,0.091-2.644-0.068c-0.848-0.159-1.623-0.451-2.322-0.878c-0.7-0.426-1.283-0.983-1.75-1.671
			c-0.465-0.687-0.762-1.52-0.884-2.499c-0.122-0.979,0.08-1.883,0.606-2.711c0.527-0.828,1.296-1.305,2.307-1.432
			c0.849-0.106,1.592,0.066,2.228,0.518c0.636,0.451,1.012,1.133,1.126,2.047c0.086,0.685-0.036,1.306-0.365,1.86
			c-0.329,0.555-0.831,0.908-1.508,1.059c0.27,1.093,0.745,1.845,1.425,2.258c0.681,0.412,1.527,0.554,2.539,0.428
			c1.828-0.229,3.499-0.917,5.013-2.067c1.513-1.15,2.959-2.64,4.339-4.47c1.378-1.83,2.746-3.947,4.103-6.354
			c1.356-2.407,2.775-4.979,4.257-7.716c1.183-2.203,2.439-4.283,3.77-6.239c1.329-1.956,2.793-3.771,4.391-5.446
			c1.597-1.674,3.354-3.203,5.27-4.586c1.915-1.383,4.052-2.585,6.41-3.61l0.465,0.539c-1.775,1.183-3.186,2.561-4.232,4.133
			c-1.046,1.573-1.912,3.272-2.595,5.098c-0.684,1.826-1.264,3.746-1.741,5.761c-0.478,2.016-1.014,4.088-1.61,6.217
			c-0.597,2.13-1.331,4.269-2.207,6.416c-0.875,2.148-2.076,4.279-3.602,6.392l0.11,0.085c1.102-1.264,2.123-2.502,3.066-3.714
			s1.931-2.586,2.965-4.125c1.034-1.538,2.163-3.32,3.384-5.345c1.222-2.024,2.635-4.447,4.238-7.266
			c1.196-2.105,2.483-4.064,3.866-5.877c1.38-1.813,2.895-3.419,4.543-4.819c1.648-1.399,3.442-2.56,5.383-3.481
			c1.939-0.921,4.052-1.525,6.336-1.811c1.207-0.15,2.049-0.173,2.527-0.067c0.477,0.107,0.741,0.355,0.79,0.747
			c0.025,0.196-0.093,0.393-0.349,0.59c-0.258,0.198-0.614,0.325-1.071,0.382c-0.555,0.069-1.016,0.094-1.383,0.073
			c-0.368-0.02-0.735-0.04-1.101-0.061c-0.237-0.037-0.564-0.062-0.98-0.077c-0.417-0.014-0.805,0.002-1.163,0.046
			c-0.556,0.069-1.16,0.41-1.812,1.022c-0.653,0.612-1.292,1.462-1.918,2.552c-0.627,1.089-1.235,2.391-1.824,3.907
			c-0.59,1.516-1.117,3.197-1.583,5.045c-0.722,2.974-1.455,5.66-2.2,8.057c-0.744,2.397-1.657,4.574-2.739,6.532
			c-1.081,1.958-2.418,3.725-4.012,5.299c-1.593,1.575-3.583,3.025-5.969,4.35l0.012,0.099l0.098-0.013
			c1.827-0.229,3.668-0.615,5.522-1.162c1.854-0.546,3.55-1.296,5.089-2.252c1.631-0.999,3.179-2.41,4.642-4.234
			c1.462-1.824,2.889-4.33,4.281-7.521l0.459,0.092c-1.131,2.627-2.298,4.829-3.501,6.603c-1.204,1.774-2.56,3.253-4.069,4.436
			c-1.118,0.869-2.296,1.588-3.534,2.157c-1.239,0.569-2.458,1.02-3.659,1.352c-1.202,0.333-2.315,0.58-3.339,0.74
			c-1.024,0.161-1.863,0.282-2.515,0.364c-0.294,0.036-0.577,0.097-0.847,0.18c-0.272,0.084-0.559,0.169-0.863,0.257
			c-0.305,0.088-0.65,0.172-1.038,0.254c-0.387,0.082-0.875,0.159-1.462,0.233c-1.012,0.126-1.55-0.072-1.615-0.594
			c-0.073-0.588,0.314-0.935,1.163-1.041c0.294-0.037,0.624-0.044,0.992-0.024c0.367,0.021,0.735,0.058,1.107,0.11
			c0.371,0.054,0.724,0.092,1.058,0.117c0.334,0.025,0.617,0.022,0.845-0.006c0.718-0.09,1.356-0.549,1.915-1.383
			c0.56-0.832,1.093-1.934,1.602-3.307c0.507-1.373,1.014-2.952,1.521-4.739c0.505-1.787,1.083-3.666,1.732-5.636
			c0.648-1.971,1.391-3.985,2.227-6.046c0.837-2.06,1.823-4.048,2.959-5.963c1.136-1.916,2.461-3.714,3.975-5.394
			c1.513-1.681,3.258-3.108,5.232-4.283l-0.11-0.085c-1.645,0.636-3.187,1.491-4.626,2.566c-1.44,1.075-2.796,2.297-4.067,3.666
			c-1.271,1.369-2.473,2.886-3.607,4.552c-1.134,1.667-2.215,3.426-3.244,5.277c-1.029,1.853-2.214,3.906-3.556,6.162
			c-1.343,2.257-2.789,4.476-4.339,6.658c-1.55,2.183-3.18,4.201-4.887,6.055c-1.708,1.854-3.457,3.308-5.248,4.359L35.989,81.642z"
			/>
	</g>
	<g>
		<path fill="#FFFFFF" d="M92.135,57.914c-0.315,0.556-0.725,1.268-1.229,2.135c-0.503,0.868-1.042,1.806-1.617,2.812
			c-0.575,1.007-1.145,2.054-1.712,3.142c-0.567,1.088-1.079,2.147-1.536,3.176c-0.457,1.029-0.82,1.985-1.092,2.866
			c-0.271,0.882-0.381,1.618-0.332,2.207c0.082,0.951,0.499,1.394,1.252,1.33c0.688-0.059,1.471-0.456,2.35-1.192
			c0.877-0.735,1.827-1.698,2.847-2.892c1.02-1.193,2.074-2.579,3.161-4.157c1.086-1.578,2.182-3.239,3.288-4.985l0.312,0.172
			c-1.169,1.784-2.308,3.523-3.417,5.218c-1.11,1.696-2.226,3.211-3.35,4.545c-1.124,1.334-2.268,2.431-3.433,3.289
			c-1.165,0.858-2.386,1.343-3.664,1.452c-1.115,0.095-1.982-0.013-2.602-0.323c-0.622-0.31-1.095-0.724-1.419-1.24
			c-0.325-0.517-0.537-1.068-0.637-1.654c-0.099-0.585-0.169-1.107-0.208-1.566l-0.156-0.086c-0.472,0.668-0.984,1.339-1.536,2.013
			c-0.554,0.674-1.169,1.296-1.846,1.866c-0.678,0.57-1.396,1.044-2.156,1.422c-0.759,0.378-1.582,0.605-2.467,0.681
			c-1.573,0.134-2.801-0.231-3.684-1.097c-0.882-0.865-1.412-2.33-1.588-4.395c-0.124-1.441,0.11-2.956,0.701-4.541
			c0.59-1.585,1.496-3.065,2.716-4.44c1.22-1.375,2.711-2.551,4.477-3.527c1.765-0.976,3.746-1.558,5.941-1.746
			c1.278-0.109,2.28,0.126,3.007,0.708c0.726,0.582,1.228,1.339,1.505,2.272l0.099-0.008l1.06-2.665L92.135,57.914z M76.539,74.151
			c1.006-0.977,1.974-2.199,2.905-3.665c0.932-1.466,1.704-3.042,2.32-4.729c0.615-1.687,0.86-3.268,0.734-4.742
			c-0.064-0.753-0.334-1.3-0.809-1.639c-0.475-0.338-0.991-0.485-1.548-0.438c-0.688,0.059-1.365,0.348-2.03,0.867
			c-0.666,0.52-1.301,1.193-1.907,2.02c-0.606,0.828-1.171,1.751-1.695,2.769c-0.523,1.019-0.972,2.048-1.345,3.086
			c-0.374,1.04-0.649,2.061-0.827,3.066c-0.179,1.006-0.235,1.886-0.171,2.64c0.047,0.558,0.201,1.097,0.46,1.619
			c0.259,0.523,0.716,0.756,1.372,0.7C74.686,75.646,75.533,75.128,76.539,74.151z"/>
	</g>
	<g>
		<path fill="#FFFFFF" d="M125.357,60.897c-0.844,1.304-1.818,2.763-2.923,4.379c-1.105,1.616-2.329,3.148-3.674,4.597
			c-1.345,1.449-2.811,2.684-4.396,3.702s-3.298,1.585-5.136,1.696c-1.872,0.114-3.233-0.208-4.087-0.962
			c-0.853-0.755-1.36-1.919-1.522-3.491l-0.104-0.093c-0.418,0.718-0.978,1.395-1.681,2.03s-1.477,1.202-2.318,1.698
			c-0.844,0.496-1.734,0.896-2.671,1.2c-0.938,0.304-1.882,0.486-2.833,0.543c-0.657,0.04-1.294-0.013-1.913-0.156
			c-0.617-0.144-1.176-0.39-1.676-0.738c-0.499-0.349-0.905-0.802-1.219-1.36c-0.314-0.557-0.496-1.23-0.543-2.018
			c-0.03-0.493,0.023-0.974,0.159-1.444c0.137-0.469,0.341-0.893,0.615-1.272c0.273-0.379,0.618-0.696,1.03-0.953
			c0.413-0.255,0.881-0.399,1.407-0.431c0.69-0.042,1.302,0.144,1.838,0.556c0.536,0.412,0.826,0.979,0.87,1.701
			c0.041,0.657-0.133,1.203-0.519,1.638c-0.385,0.436-0.857,0.67-1.415,0.704c-0.164,0.01-0.312,0.019-0.443,0.027
			c-0.164,0.01-0.347-0.011-0.548-0.065c-0.056,0.169-0.093,0.36-0.114,0.576c-0.018,0.216-0.023,0.421-0.011,0.618
			c0.041,0.657,0.285,1.169,0.736,1.537c0.451,0.368,1.037,0.531,1.76,0.486c1.477-0.089,2.851-0.659,4.122-1.708
			c1.271-1.048,2.371-2.319,3.303-3.809c0.93-1.49,1.641-3.09,2.13-4.8c0.489-1.71,0.691-3.255,0.608-4.634
			c-0.036-0.591-0.222-1.057-0.555-1.4c-0.334-0.342-0.78-0.497-1.337-0.462c-0.46,0.028-0.91,0.22-1.349,0.576
			c-0.44,0.356-0.867,0.778-1.283,1.264c-0.415,0.487-0.813,0.988-1.193,1.506c-0.381,0.518-0.725,0.967-1.03,1.348l-0.416-0.321
			c0.485-0.688,1.018-1.412,1.598-2.173c0.579-0.76,1.188-1.457,1.825-2.088c0.637-0.632,1.313-1.167,2.028-1.606
			c0.714-0.438,1.433-0.68,2.154-0.724c0.69-0.042,1.298,0.062,1.824,0.309c0.526,0.248,0.976,0.6,1.349,1.054
			c0.374,0.456,0.684,0.964,0.933,1.526c0.248,0.562,0.423,1.135,0.525,1.722c1.21-1.227,2.479-2.309,3.806-3.246
			c1.327-0.937,2.828-1.457,4.502-1.559c1.247-0.076,2.215,0.129,2.904,0.614c0.688,0.486,1.058,1.155,1.11,2.008
			c0.064,1.051-0.22,1.934-0.852,2.646c-0.633,0.714-1.507,1.105-2.623,1.173c-0.361,0.021-0.691,0.01-0.99-0.038
			c-0.299-0.048-0.536-0.133-0.708-0.254c0.33-0.514,0.556-1.146,0.675-1.895c0.119-0.749,0.161-1.418,0.125-2.009
			c-0.034-0.558-0.131-0.964-0.296-1.218c-0.164-0.253-0.442-0.368-0.836-0.344c-0.689,0.042-1.477,0.502-2.363,1.379
			c-0.886,0.878-1.719,1.958-2.497,3.241c-0.779,1.283-1.428,2.674-1.946,4.171c-0.52,1.498-0.739,2.887-0.662,4.167
			c0.07,1.15,0.403,2.02,0.999,2.609c0.596,0.59,1.337,0.858,2.223,0.804c0.788-0.048,1.604-0.303,2.45-0.767
			c0.844-0.463,1.689-1.067,2.534-1.81s1.675-1.568,2.494-2.475c0.817-0.906,1.578-1.817,2.28-2.733
			c0.703-0.916,1.348-1.812,1.938-2.688s1.063-1.622,1.421-2.236L125.357,60.897z"/>
	</g>
	<g>
		<path fill="#FFFFFF" d="M168.923,57.793c-0.293,0.445-0.673,1.014-1.139,1.708c-0.466,0.695-0.967,1.444-1.499,2.25
			c-0.533,0.806-1.065,1.645-1.597,2.518c-0.532,0.874-1.015,1.726-1.452,2.557c-0.437,0.831-0.792,1.605-1.065,2.323
			c-0.275,0.719-0.406,1.324-0.397,1.817c0.016,0.795,0.337,1.186,0.969,1.173c0.576-0.011,1.248-0.297,2.019-0.861
			c0.77-0.562,1.612-1.312,2.527-2.249c0.913-0.935,1.866-2.03,2.856-3.283c0.99-1.252,1.993-2.574,3.008-3.964l0.25,0.159
			c-1.07,1.419-2.112,2.803-3.128,4.152c-1.017,1.349-2.028,2.547-3.035,3.594c-1.008,1.047-2.02,1.896-3.035,2.546
			c-1.016,0.65-2.058,0.985-3.126,1.006c-0.933,0.018-1.647-0.119-2.146-0.411c-0.5-0.292-0.871-0.662-1.111-1.11
			c-0.242-0.448-0.388-0.917-0.438-1.41c-0.051-0.493-0.08-0.93-0.087-1.314l-0.125-0.08c-0.428,0.53-0.892,1.06-1.388,1.59
			c-0.498,0.53-1.043,1.013-1.638,1.45c-0.595,0.437-1.218,0.792-1.871,1.064c-0.652,0.272-1.349,0.416-2.088,0.43
			c-1.315,0.025-2.316-0.346-3.002-1.114c-0.688-0.768-1.046-2.015-1.079-3.741c-0.023-1.206,0.254-2.452,0.833-3.738
			c0.578-1.286,1.413-2.467,2.502-3.543c1.089-1.077,2.395-1.972,3.916-2.687c1.521-0.714,3.2-1.089,5.036-1.125
			c1.069-0.021,1.889,0.231,2.461,0.754c0.572,0.523,0.948,1.182,1.127,1.973l0.082-0.001l1.028-2.158L168.923,57.793z
			 M155.062,70.437c0.89-0.757,1.763-1.72,2.618-2.888c0.854-1.167,1.583-2.436,2.188-3.804c0.604-1.369,0.895-2.67,0.871-3.903
			c-0.012-0.63-0.207-1.099-0.583-1.408c-0.375-0.307-0.797-0.458-1.262-0.449c-0.576,0.011-1.155,0.214-1.736,0.609
			c-0.582,0.395-1.147,0.92-1.696,1.575c-0.55,0.655-1.071,1.392-1.561,2.209c-0.492,0.819-0.922,1.649-1.289,2.492
			c-0.368,0.844-0.653,1.678-0.857,2.504c-0.204,0.827-0.298,1.555-0.287,2.185c0.009,0.467,0.106,0.924,0.293,1.373
			c0.187,0.448,0.554,0.667,1.103,0.657C153.439,71.579,154.172,71.194,155.062,70.437z"/>
	</g>
	<g>
		<path fill="#FFFFFF" d="M165.641,72.623l8.466-14.58l5.837-0.264c-1.965,2.747-3.848,5.548-5.648,8.404l0.083,0.082
			c0.71-0.906,1.501-1.881,2.376-2.926c0.874-1.044,1.796-2.013,2.767-2.907c0.97-0.894,1.968-1.644,2.994-2.25
			c1.026-0.605,2.046-0.911,3.06-0.914c1.042-0.003,1.913,0.261,2.613,0.794c0.701,0.532,1.053,1.347,1.056,2.443
			c0.002,0.905-0.276,1.837-0.834,2.798c-0.559,0.962-1.18,1.902-1.862,2.822c-0.683,0.921-1.304,1.799-1.863,2.637
			c-0.559,0.838-0.838,1.572-0.835,2.202c0,0.274,0.077,0.514,0.228,0.719c0.151,0.205,0.392,0.307,0.721,0.306
			c0.603-0.002,1.288-0.285,2.053-0.849c0.765-0.563,1.559-1.258,2.378-2.083c0.628-0.632,1.257-1.312,1.885-2.041
			c0.628-0.728,1.215-1.429,1.762-2.102c0.546-0.673,1.037-1.291,1.475-1.854c0.436-0.563,0.777-1.01,1.023-1.339l0.371,0.205
			c-0.929,1.236-1.918,2.514-2.97,3.833s-2.109,2.529-3.175,3.627c-1.121,1.154-2.208,2.056-3.26,2.703
			c-1.054,0.647-2.129,0.973-3.225,0.977c-1.233,0.003-2.159-0.357-2.778-1.082c-0.619-0.724-0.93-1.662-0.933-2.813
			c-0.003-0.987,0.261-1.926,0.793-2.819c0.532-0.892,1.125-1.73,1.781-2.513c0.656-0.783,1.25-1.505,1.782-2.164
			s0.798-1.277,0.796-1.853c-0.002-0.767-0.374-1.15-1.114-1.147c-0.494,0.001-1.096,0.257-1.807,0.766
			c-0.711,0.51-1.477,1.176-2.296,2.001c-0.82,0.825-1.653,1.746-2.5,2.762c-0.847,1.017-1.646,2.034-2.396,3.05
			c-0.75,1.017-1.406,1.978-1.964,2.884c-0.559,0.907-0.976,1.648-1.247,2.224L165.641,72.623z"/>
	</g>
	<g>
		<path fill="#FFFFFF" d="M222.187,44.002c-2.36,3.802-4.392,7.066-6.091,9.796c-1.701,2.729-3.14,5.051-4.321,6.965
			c-1.18,1.915-2.122,3.477-2.825,4.686c-0.704,1.21-1.247,2.182-1.627,2.916c-0.383,0.735-0.637,1.3-0.767,1.694
			c-0.129,0.396-0.195,0.744-0.2,1.046c-0.005,0.328,0.078,0.596,0.255,0.805c0.174,0.208,0.453,0.315,0.837,0.321
			c0.466,0.006,1.128-0.257,1.986-0.792c0.857-0.535,1.732-1.234,2.621-2.098c1.393-1.349,2.598-2.688,3.618-4.016
			c1.021-1.327,1.812-2.37,2.372-3.13l0.366,0.211c-0.644,0.895-1.518,2.053-2.622,3.477c-1.105,1.422-2.395,2.835-3.868,4.237
			c-1.196,1.133-2.291,1.946-3.285,2.438c-0.995,0.492-2.013,0.73-3.055,0.714c-1.068-0.016-1.906-0.358-2.513-1.025
			c-0.606-0.667-0.901-1.494-0.887-2.48c0.004-0.301,0.076-0.629,0.221-0.983l-0.081-0.083c-0.979,1.218-2.098,2.264-3.358,3.135
			c-1.261,0.872-2.741,1.295-4.439,1.27c-1.289-0.02-2.242-0.459-2.858-1.318c-0.618-0.859-0.917-1.864-0.9-3.015
			c0.024-1.589,0.437-3.077,1.24-4.463c0.802-1.386,1.828-2.59,3.077-3.613c1.249-1.023,2.639-1.824,4.168-2.404
			c1.53-0.579,3.035-0.858,4.516-0.836c0.877,0.014,1.584,0.285,2.126,0.814c0.54,0.528,0.899,1.192,1.079,1.99l9.288-15.936
			L222.187,44.002z M205.415,58.549c-0.229-0.387-0.656-0.585-1.286-0.595c-0.822-0.013-1.699,0.386-2.629,1.193
			c-0.931,0.808-1.796,1.796-2.595,2.962c-0.799,1.167-1.462,2.397-1.988,3.69c-0.528,1.294-0.798,2.422-0.812,3.38
			c-0.01,0.63,0.092,1.146,0.306,1.546c0.213,0.401,0.58,0.605,1.101,0.613c0.658,0.01,1.312-0.185,1.962-0.587
			c0.649-0.401,1.282-0.933,1.895-1.595c0.612-0.662,1.179-1.414,1.699-2.257c0.52-0.84,0.978-1.676,1.375-2.507
			c0.396-0.83,0.709-1.627,0.939-2.391c0.231-0.764,0.352-1.407,0.359-1.928C205.75,59.445,205.641,58.937,205.415,58.549z"/>
	</g>
	<g>
		<path fill="#FFFFFF" d="M293.94,41.775c-1.603,1.382-3.239,2.911-4.909,4.586c-1.669,1.675-3.296,3.419-4.874,5.231
			c-1.581,1.813-3.072,3.673-4.477,5.578c-1.405,1.906-2.644,3.79-3.714,5.651c-1.074,1.86-1.943,3.66-2.611,5.397
			c-0.67,1.738-1.052,3.361-1.146,4.871c-0.056,0.886,0.085,1.521,0.424,1.905c0.338,0.384,0.722,0.589,1.146,0.615
			c1.15,0.072,2.393-0.278,3.727-1.052c1.332-0.773,2.68-1.76,4.039-2.961c1.361-1.2,2.694-2.5,4.002-3.902
			c1.306-1.401,2.491-2.693,3.554-3.88l0.323,0.366c-1.205,1.342-2.398,2.643-3.581,3.904c-1.183,1.261-2.454,2.507-3.816,3.741
			c-0.7,0.648-1.439,1.269-2.218,1.863c-0.779,0.594-1.602,1.103-2.469,1.526c-0.867,0.424-1.785,0.753-2.756,0.989
			c-0.972,0.236-2.015,0.319-3.13,0.249c-1.74-0.108-3.094-0.605-4.059-1.49c-0.967-0.884-1.396-2.179-1.289-3.886
			c0.062-0.985,0.228-1.947,0.501-2.885c0.273-0.939,0.61-1.856,1.013-2.755c0.402-0.896,0.846-1.784,1.327-2.66
			c0.483-0.876,0.965-1.711,1.443-2.505l-6.599-0.413c-1.61,1.514-3.327,3.137-5.148,4.868c-1.823,1.732-3.735,3.318-5.735,4.758
			c-2.002,1.441-4.086,2.604-6.249,3.49c-2.165,0.887-4.396,1.258-6.693,1.114c-2.462-0.154-4.331-0.822-5.609-2.006
			c-1.275-1.184-1.86-2.645-1.752-4.385c0.026-0.426,0.12-0.858,0.279-1.293c0.158-0.435,0.397-0.832,0.716-1.191
			c0.319-0.359,0.708-0.648,1.167-0.866c0.458-0.218,1-0.309,1.623-0.269c0.657,0.041,1.283,0.295,1.88,0.76
			c0.598,0.466,0.864,1.225,0.799,2.275c-0.05,0.788-0.343,1.379-0.879,1.773c-0.535,0.396-1.081,0.575-1.639,0.541
			c-0.001,1.055,0.425,1.873,1.279,2.453c0.854,0.581,1.937,0.912,3.25,0.994c1.936,0.122,3.938-0.264,6.005-1.156
			c2.065-0.892,4.081-2.043,6.048-3.454c1.966-1.409,3.85-2.939,5.651-4.59c1.799-1.649,3.402-3.172,4.809-4.568
			c0.7-0.681,1.604-1.546,2.707-2.598c1.104-1.051,2.378-2.183,3.821-3.395c1.442-1.211,3.037-2.447,4.779-3.706
			c1.743-1.258,3.596-2.444,5.562-3.557c1.965-1.113,4.036-2.096,6.215-2.948c2.179-0.853,4.434-1.47,6.764-1.852L293.94,41.775z
			 M270.723,59.7c1.861-2.882,4.016-5.582,6.464-8.098c2.446-2.517,5.008-4.877,7.685-7.082l-0.093-0.105
			c-1.858,0.741-3.724,1.695-5.592,2.864c-1.869,1.169-3.679,2.431-5.427,3.788c-1.75,1.358-3.427,2.751-5.031,4.184
			c-1.606,1.433-3.092,2.782-4.455,4.047L270.723,59.7z"/>
	</g>
	<g>
		<path fill="#FFFFFF" d="M309.553,44.016c-3.764,5.144-6.979,9.494-9.645,13.051c-2.665,3.558-4.856,6.541-6.575,8.944
			c-1.72,2.406-2.998,4.321-3.835,5.748c-0.84,1.428-1.298,2.583-1.378,3.468c-0.032,0.36,0.049,0.648,0.244,0.863
			c0.194,0.216,0.424,0.335,0.687,0.36c0.753,0.067,1.74-0.265,2.963-0.997c1.221-0.733,2.502-1.665,3.843-2.8
			c1.34-1.134,2.646-2.362,3.924-3.684c1.273-1.322,2.34-2.538,3.2-3.649l0.376,0.231c-0.259,0.308-0.688,0.831-1.281,1.569
			c-0.595,0.739-1.33,1.573-2.206,2.501s-1.845,1.873-2.905,2.834c-1.061,0.962-2.164,1.836-3.307,2.625
			c-1.146,0.789-2.309,1.419-3.49,1.89c-1.181,0.471-2.33,0.658-3.443,0.557c-1.375-0.124-2.376-0.561-3.002-1.311
			c-0.626-0.749-0.892-1.648-0.798-2.697c0.064-0.72,0.249-1.471,0.551-2.253c0.3-0.782,0.753-1.699,1.36-2.751
			c0.606-1.051,1.396-2.285,2.363-3.7c0.971-1.416,2.163-3.101,3.577-5.053c1.415-1.953,3.071-4.232,4.974-6.834
			c1.901-2.603,4.081-5.626,6.537-9.07L309.553,44.016z"/>
	</g>
	<g>
		<path fill="#FFFFFF" d="M324.073,45.739c-3.084,3.961-5.765,7.414-8.039,10.356c-2.277,2.943-4.235,5.464-5.872,7.567
			c-1.64,2.103-2.976,3.867-4.009,5.292c-1.033,1.424-1.859,2.608-2.475,3.549c-0.618,0.941-1.043,1.722-1.276,2.341
			c-0.233,0.62-0.361,1.176-0.382,1.67c-0.035,1.22,0.536,1.896,1.714,2.025c1.209,0.133,2.442-0.177,3.699-0.932
			c1.258-0.755,2.441-1.741,3.553-2.959c1.109-1.218,2.1-2.54,2.968-3.966c0.869-1.426,1.521-2.762,1.955-4.005
			c-0.037-0.268-0.072-0.545-0.107-0.83c-0.034-0.284-0.034-0.591,0.003-0.918c0.093-0.85,0.458-1.612,1.096-2.287
			c0.637-0.675,1.477-0.954,2.523-0.838c0.948,0.104,1.672,0.515,2.172,1.231c0.501,0.717,0.684,1.697,0.546,2.939
			c-0.032,0.295-0.098,0.667-0.199,1.12c-0.098,0.452-0.24,0.917-0.424,1.393c0.319,0.399,0.73,0.784,1.236,1.154
			c0.505,0.37,1.183,0.602,2.033,0.695c1.013,0.111,1.91-0.07,2.691-0.547c0.779-0.477,1.466-0.997,2.058-1.56l0.251,0.424
			c-0.262,0.269-0.565,0.551-0.913,0.843c-0.347,0.292-0.73,0.557-1.152,0.79c-0.424,0.235-0.89,0.416-1.4,0.542
			c-0.51,0.125-1.076,0.154-1.698,0.086c-0.718-0.08-1.363-0.3-1.937-0.66c-0.572-0.36-1.017-0.757-1.333-1.189
			c-0.711,1.643-1.694,3.131-2.948,4.466c-1.256,1.333-2.671,2.452-4.241,3.354c-1.572,0.902-3.249,1.553-5.03,1.952
			c-1.781,0.399-3.554,0.502-5.319,0.308c-2.093-0.23-3.683-0.969-4.77-2.213c-1.087-1.244-1.521-2.864-1.301-4.859
			c0.062-0.555,0.227-1.157,0.496-1.806c0.271-0.648,0.694-1.42,1.272-2.317c0.578-0.896,1.342-1.97,2.291-3.222
			c0.948-1.252,2.117-2.77,3.505-4.552c1.388-1.784,3.033-3.885,4.938-6.306c1.904-2.421,4.107-5.23,6.611-8.429L324.073,45.739z"/>
	</g>
	<g>
		<path fill="#FFFFFF" d="M350.951,71.729c-0.896,0.973-1.884,1.942-2.963,2.906c-1.077,0.964-2.281,1.937-3.61,2.917
			c-2.543,1.843-4.95,3.174-7.22,3.991c-2.27,0.818-4.708,1.049-7.314,0.692c-2.25-0.308-3.888-1.064-4.919-2.268
			c-1.029-1.202-1.408-2.799-1.137-4.786c0.236-1.727,0.949-3.289,2.136-4.687c1.188-1.398,2.6-2.565,4.239-3.503
			c1.639-0.937,3.376-1.629,5.214-2.075c1.837-0.446,3.537-0.562,5.102-0.347c1.563,0.214,2.817,0.643,3.758,1.286
			c0.939,0.644,1.333,1.536,1.178,2.676c-0.156,1.141-0.847,2.059-2.07,2.754c-1.225,0.696-2.636,1.241-4.233,1.636
			c-1.597,0.396-3.188,0.676-4.771,0.841c-1.583,0.166-2.827,0.285-3.733,0.36c-0.109,0.318-0.204,0.637-0.28,0.958
			c-0.078,0.322-0.138,0.646-0.183,0.971c-0.08,0.586-0.095,1.174-0.043,1.762c0.053,0.589,0.203,1.116,0.457,1.582
			c0.251,0.466,0.61,0.863,1.081,1.193c0.469,0.331,1.078,0.546,1.828,0.649c1.531,0.209,3.255-0.127,5.168-1.01
			c1.914-0.883,3.883-2.05,5.906-3.5c1.292-0.951,2.441-1.89,3.448-2.814c1.006-0.925,1.86-1.771,2.563-2.537L350.951,71.729z
			 M339.519,65.034c-0.718-0.098-1.542,0.163-2.472,0.782c-0.932,0.619-1.819,1.394-2.659,2.325
			c-0.842,0.931-1.597,1.898-2.265,2.902c-0.67,1.004-1.118,1.856-1.346,2.555c1.408-0.107,2.699-0.386,3.873-0.84
			c1.176-0.452,2.195-1.001,3.064-1.646c0.869-0.646,1.557-1.363,2.063-2.157c0.508-0.793,0.814-1.582,0.922-2.364
			C340.825,65.679,340.43,65.159,339.519,65.034z"/>
	</g>
	<g>
		<path fill="#FFFFFF" d="M339.573,82.84l12.7-15.699l7.042,0.965l-9.269,9.768l0.081,0.113c2.209-2.268,4.212-4.053,6.013-5.355
			c1.799-1.303,3.323-2.101,4.572-2.394c0.546-0.476,1.022-0.847,1.435-1.112c0.41-0.265,0.916-0.449,1.516-0.549
			c0.6-0.101,1.386-0.112,2.355-0.035c0.97,0.078,2.289,0.221,3.955,0.429c-0.454,0.325-0.916,0.699-1.386,1.121
			c-0.471,0.422-0.913,0.883-1.328,1.38c-0.417,0.498-0.778,1.021-1.087,1.57c-0.308,0.549-0.506,1.1-0.598,1.652
			c-0.112,0.681-0.046,1.343,0.197,1.982c0.243,0.641,0.738,1.023,1.485,1.146c0.486,0.081,0.991,0.057,1.512-0.075
			c0.523-0.13,1.038-0.328,1.549-0.593c0.51-0.265,1.004-0.575,1.479-0.93c0.476-0.354,0.908-0.699,1.297-1.035l0.293,0.348
			c-0.271,0.223-0.659,0.55-1.163,0.983c-0.506,0.433-1.147,0.835-1.925,1.206c-0.78,0.372-1.71,0.659-2.794,0.863
			c-1.083,0.204-2.34,0.188-3.768-0.049c-0.779-0.128-1.473-0.369-2.081-0.719c-0.609-0.351-1.1-0.757-1.473-1.219
			c-0.375-0.462-0.64-0.972-0.797-1.532c-0.158-0.559-0.188-1.132-0.092-1.715c0.162-0.974,0.418-1.714,0.77-2.224l0.016-0.098
			c-1.061,0.359-2.266,1.043-3.614,2.052c-1.352,1.01-2.691,2.147-4.016,3.411c-1.328,1.264-2.556,2.544-3.688,3.84
			s-2.006,2.393-2.621,3.292L339.573,82.84z"/>
	</g>
	<g>
		<path fill="#FFFFFF" d="M370.732,71.301l0.491-0.707l4.019,0.788l5.491-6.212l6.777,1.078l-5.78,6.407l6.631,1.301l-0.538,0.698
			l-6.682-1.31c-0.604,0.686-1.424,1.581-2.462,2.684c-1.038,1.104-2.076,2.257-3.117,3.461c-1.041,1.205-1.974,2.378-2.804,3.523
			c-0.827,1.145-1.32,2.121-1.479,2.928c-0.108,0.549-0.034,0.982,0.223,1.301c0.256,0.319,0.658,0.531,1.207,0.638
			c0.839,0.165,1.772,0.105,2.8-0.18c1.028-0.284,2.091-0.704,3.189-1.26c1.098-0.555,2.18-1.206,3.248-1.951
			c1.068-0.746,2.086-1.494,3.054-2.242c0.968-0.749,1.853-1.455,2.653-2.119c0.802-0.664,1.441-1.201,1.924-1.608l0.35,0.269
			c-1.352,1.076-2.79,2.269-4.321,3.577c-1.53,1.308-3.138,2.493-4.819,3.555c-1.683,1.06-3.435,1.873-5.255,2.438
			c-1.82,0.564-3.698,0.657-5.635,0.277c-1.486-0.292-2.512-0.904-3.084-1.836c-0.57-0.933-0.733-2.029-0.486-3.289
			c0.127-0.645,0.341-1.266,0.643-1.86c0.299-0.595,0.766-1.307,1.398-2.139c0.633-0.831,1.449-1.834,2.451-3.013
			c1.002-1.178,2.281-2.652,3.835-4.427L370.732,71.301z"/>
	</g>
</g>
</svg>
